<?xml version="1.0" standalone="no"?>
<!DOCTYPE svg PUBLIC "-//W3C//DTD SVG 20010904//EN"
 "http://www.w3.org/TR/2001/REC-SVG-20010904/DTD/svg10.dtd">
<svg version="1.0" xmlns="http://www.w3.org/2000/svg"
 width="575.000000pt" height="430.000000pt" viewBox="0 0 575.000000 430.000000"
 preserveAspectRatio="xMidYMid meet">

<g transform="translate(0.000000,430.000000) scale(0.100000,-0.100000)"
fill="#000000" stroke="none">
<path d="M2654 3726 c-283 -54 -524 -183 -717 -385 -333 -349 -444 -869 -281
-1322 139 -388 459 -692 849 -807 248 -74 535 -69 780 13 382 127 687 433 815
814 50 150 64 238 63 421 0 180 -11 245 -64 404 -143 430 -499 748 -954 852
-95 22 -395 28 -491 10z m486 -55 c503 -114 878 -508 966 -1013 24 -138 15
-380 -19 -508 -66 -246 -169 -422 -351 -598 -263 -255 -619 -380 -976 -343
-440 45 -807 297 -1004 689 -150 298 -169 673 -50 990 166 441 565 749 1044
806 78 9 308 -4 390 -23z"/>
<path d="M2867 3624 c-4 -4 -7 -30 -8 -58 -1 -43 -2 -46 -8 -21 -14 58 -29 75
-67 75 -31 0 -37 -4 -50 -36 -17 -41 -11 -104 14 -142 12 -18 22 -22 51 -20
31 3 38 8 48 38 l12 35 0 -37 1 -38 45 0 c36 0 45 4 45 17 0 15 1 15 13 -1 29
-40 96 -13 98 38 0 12 4 47 8 78 7 54 2 68 -24 68 -1 0 -6 -33 -10 -74 -4 -47
-12 -80 -22 -87 -30 -25 -36 17 -18 134 4 21 1 27 -14 27 -16 0 -20 -11 -26
-80 -7 -75 -8 -80 -31 -80 -22 0 -23 3 -26 82 -3 75 -12 100 -31 82z m-47
-114 c0 -41 -18 -64 -39 -51 -19 12 -27 97 -10 117 12 15 15 14 31 -6 10 -13
18 -39 18 -60z"/>
<path d="M2679 3538 l-1 -73 -29 63 c-17 37 -35 62 -45 62 -19 0 -15 -16 33
-117 25 -52 40 -73 52 -71 23 5 30 208 6 208 -12 0 -15 -14 -16 -72z"/>
<path d="M3086 3531 c-9 -42 -19 -87 -23 -99 -4 -16 -1 -22 10 -22 17 0 22 12
33 75 6 32 9 36 15 20 4 -11 11 -41 14 -67 8 -59 30 -64 44 -10 27 103 33 133
27 147 -9 25 -24 9 -31 -36 -8 -48 -17 -44 -24 13 -4 29 -12 43 -27 49 -20 7
-23 2 -38 -70z"/>
<path d="M3223 3564 c-3 -8 2 -20 11 -27 15 -11 14 -18 -9 -86 -30 -88 -29
-81 -10 -81 16 0 21 9 51 93 14 39 21 47 41 47 41 0 23 30 -30 51 -42 17 -48
17 -54 3z"/>
<path d="M2429 3529 c-16 -16 -20 -30 -17 -56 l4 -35 -19 26 c-22 30 -52 33
-85 8 l-23 -18 42 -78 42 -78 -32 16 c-17 9 -31 23 -31 32 0 8 -7 28 -15 44
-18 36 -57 40 -94 11 l-24 -19 45 -65 46 -65 -22 -21 c-22 -21 -23 -21 -39 -3
-16 18 -16 20 3 37 15 14 17 21 9 32 -10 11 -15 11 -34 -1 -20 -13 -25 -13
-35 -2 -8 11 -6 18 11 30 19 13 20 18 9 31 -12 14 -16 13 -42 -11 -15 -15 -28
-33 -28 -38 0 -6 29 -41 63 -78 l62 -68 45 40 45 40 -18 30 c-21 34 -18 36 25
14 25 -13 35 -13 59 -4 34 14 33 13 15 49 -13 25 -13 28 5 39 10 7 19 22 19
35 0 19 2 18 20 -11 37 -60 101 -65 116 -8 9 36 -15 106 -46 138 -34 33 -53
35 -81 7z m71 -51 c36 -60 19 -122 -22 -80 -27 27 -38 112 -14 112 9 0 25 -15
36 -32z m-124 -43 c4 -8 3 -23 -1 -32 -6 -17 -7 -17 -21 1 -8 11 -14 26 -14
33 0 18 29 16 36 -2z m-106 -74 c0 -28 -17 -35 -29 -12 -15 27 -14 31 9 31 13
0 20 -7 20 -19z"/>
<path d="M3319 3453 c-28 -38 -56 -74 -62 -80 -6 -9 -4 -15 8 -19 11 -5 21 -1
27 10 13 23 52 2 45 -25 -4 -14 3 -23 21 -33 25 -13 28 -12 47 18 l20 31 5
-47 c4 -40 11 -52 39 -73 25 -18 37 -22 42 -13 4 7 5 16 3 20 -8 12 65 108 81
108 25 0 27 21 4 38 -32 23 -44 21 -45 -4 -1 -26 -65 -114 -79 -110 -20 6 -6
57 24 85 41 39 41 73 -1 99 -18 11 -35 19 -39 16 -4 -2 -24 -33 -45 -69 -21
-35 -39 -63 -40 -62 -2 1 4 35 13 74 15 70 13 103 -6 103 -5 0 -33 -30 -62
-67z m32 -46 c-17 -17 -24 -1 -10 25 12 21 14 21 17 4 2 -10 -1 -23 -7 -29z
m136 -11 c-4 -9 -16 -16 -27 -16 -21 0 -20 8 3 38 13 17 32 -1 24 -22z"/>
<path d="M2850 3349 c-132 -6 -150 -9 -245 -41 -147 -50 -265 -127 -376 -246
-159 -169 -239 -375 -239 -612 0 -250 86 -458 264 -636 134 -134 270 -207 451
-245 353 -73 722 73 924 366 187 271 215 627 71 916 -128 258 -352 429 -635
486 -71 14 -116 17 -215 12z m87 -56 c-3 -10 -23 -60 -44 -111 l-38 -93 -18
56 c-18 54 -19 55 -58 55 -21 0 -39 -2 -39 -4 0 -2 22 -66 49 -142 50 -142 97
-247 134 -298 19 -27 19 -28 1 -18 -61 33 -111 117 -135 227 -11 50 -14 55
-20 35 -4 -14 -8 -52 -9 -85 -2 -62 -17 -132 -19 -89 -2 47 -33 122 -65 160
-18 22 -58 53 -87 69 l-54 29 45 -50 c57 -64 92 -134 98 -196 6 -62 -33 -178
-60 -178 -22 0 -22 -4 -2 54 20 57 14 128 -12 163 -11 14 -39 37 -64 51 l-45
27 28 -36 c19 -25 27 -48 27 -76 0 -43 -27 -133 -40 -133 -14 0 -32 68 -25 92
l6 23 -20 -23 c-31 -35 -43 -90 -30 -137 13 -48 49 -113 78 -139 20 -18 30
-76 13 -76 -5 0 -16 15 -25 33 -24 48 -22 5 3 -68 11 -31 17 -61 14 -66 -12
-20 -23 -7 -29 34 -14 92 -74 233 -126 297 l-20 25 20 -40 c36 -75 53 -155 55
-257 0 -58 5 -98 11 -98 6 0 -6 -10 -25 -21 -51 -32 -63 -51 -42 -68 15 -12
15 -13 -5 -8 -13 3 -23 1 -23 -4 0 -5 14 -9 31 -9 26 0 30 -3 24 -17 -4 -10
-13 -51 -20 -92 -24 -135 17 -268 114 -369 27 -29 48 -52 45 -52 -10 0 -91 44
-130 71 -66 45 -177 161 -228 237 -52 79 -95 175 -122 278 -25 95 -25 280 0
389 66 287 288 532 567 624 92 30 142 39 238 40 75 1 83 -1 78 -16z m178 -10
c146 -35 332 -157 438 -288 351 -434 212 -1064 -290 -1319 -29 -14 -55 -26
-59 -26 -4 0 14 23 40 50 57 61 81 112 100 213 16 81 50 169 72 188 10 9 23 7
54 -5 60 -24 95 -21 119 10 12 15 20 36 20 48 -1 20 -2 20 -6 1 -7 -28 -33
-55 -52 -55 -10 0 -7 5 9 13 18 9 27 24 31 51 5 33 2 43 -21 67 -15 16 -29 27
-32 24 -3 -3 -13 5 -24 17 -19 22 -19 23 1 8 18 -14 19 -14 6 2 -7 10 -17 15
-22 12 -12 -7 -80 41 -71 51 4 5 2 5 -5 2 -16 -10 -44 3 -36 16 3 6 1 7 -5 3
-6 -4 -22 -1 -34 6 -13 7 -25 12 -28 11 -3 -1 -27 5 -55 12 -27 8 -43 14 -34
14 14 1 104 119 96 128 -2 2 -30 -26 -61 -62 -55 -61 -60 -65 -99 -64 -23 1
-32 4 -21 6 18 3 22 13 27 58 3 30 3 96 0 147 -6 107 7 188 41 264 30 65 12
63 -38 -5 -41 -55 -61 -114 -71 -201 -7 -67 -31 -138 -41 -127 -4 3 2 39 12
79 27 107 25 253 -4 343 -13 39 -34 89 -47 113 -19 34 -22 48 -15 68 16 41 13
46 -31 42 l-40 -4 6 34 c14 76 20 83 67 76 24 -3 70 -13 103 -21z m-115 -239
c0 -38 -3 -45 -17 -42 -19 4 -19 21 -3 64 14 36 20 29 20 -22z m-221 -356 c8
-22 8 -28 -3 -28 -18 0 -26 32 -25 95 l1 50 8 -45 c5 -25 13 -57 19 -72z
m-132 -230 c-3 -8 -6 -5 -6 6 -1 11 2 17 5 13 3 -3 4 -12 1 -19z m-80 -204
c-3 -3 -12 -4 -19 -1 -8 3 -5 6 6 6 11 1 17 -2 13 -5z m500 0 c-3 -3 -12 -4
-19 -1 -8 3 -5 6 6 6 11 1 17 -2 13 -5z m-610 -20 c-3 -3 -12 -4 -19 -1 -8 3
-5 6 6 6 11 1 17 -2 13 -5z m166 -69 c76 -150 87 -226 41 -272 -21 -21 -32
-25 -66 -20 -102 14 -133 123 -78 270 11 28 20 54 20 56 0 2 -13 -13 -30 -34
-31 -39 -35 -34 -21 30 4 20 14 31 31 36 58 16 64 12 103 -66z m554 69 c-3 -3
-12 -4 -19 -1 -8 3 -5 6 6 6 11 1 17 -2 13 -5z m-71 -20 c-16 -43 -18 -121 -2
-157 8 -21 11 -35 6 -32 -48 30 -59 205 -13 205 10 0 13 -6 9 -16z m232 -54
c9 0 -1 -23 -18 -40 -43 -43 -90 -17 -90 49 l0 31 53 -20 c28 -11 53 -20 55
-20z m-18 30 c8 -5 11 -10 5 -10 -5 0 -17 5 -25 10 -8 5 -10 10 -5 10 6 0 17
-5 25 -10z m45 -20 c3 -6 -1 -7 -9 -4 -18 7 -21 14 -7 14 6 0 13 -4 16 -10z
m40 -20 c3 -6 -1 -7 -9 -4 -18 7 -21 14 -7 14 6 0 13 -4 16 -10z m50 -28 c-3
-3 -11 0 -18 7 -9 10 -8 11 6 5 10 -3 15 -9 12 -12z m-41 -1 c3 -4 -6 -19 -21
-32 -21 -19 -25 -21 -20 -6 4 10 7 25 7 33 0 15 25 19 34 5z m109 -18 c-7 -2
-19 -2 -25 0 -7 3 -2 5 12 5 14 0 19 -2 13 -5z"/>
<path d="M2165 2670 c-42 -27 -65 -75 -65 -135 0 -117 106 -186 215 -141 31
13 35 19 35 51 l0 37 -34 -21 c-71 -44 -136 -10 -136 72 0 61 29 97 78 97 20
0 46 -7 56 -15 29 -22 36 -19 36 18 0 26 -6 36 -25 45 -41 19 -126 15 -160 -8z"/>
<path d="M3390 2560 l0 -150 75 0 c90 0 141 18 155 55 16 41 12 64 -15 91 -23
23 -24 27 -10 47 21 31 19 54 -10 82 -22 23 -32 25 -110 25 l-85 0 0 -150z
m121 90 c23 -13 25 -46 3 -54 -34 -13 -44 -7 -44 29 0 37 9 42 41 25z m32
-131 c18 -29 1 -49 -41 -49 -38 0 -38 0 -34 36 4 32 7 35 35 32 16 -2 35 -10
40 -19z"/>
<path d="M3604 3321 c-68 -41 -97 -124 -54 -154 31 -22 65 -9 110 39 45 49 52
90 22 117 -24 22 -40 21 -78 -2z m56 -45 c0 -28 -57 -88 -80 -84 -28 6 -22 38
13 73 41 41 67 46 67 11z"/>
<path d="M2055 3280 c-4 -6 19 -35 51 -64 41 -38 56 -57 51 -69 -10 -26 -21
-21 -82 34 -41 39 -59 49 -67 41 -9 -9 -7 -17 7 -32 18 -20 8 -29 -12 -9 -16
16 -51 -6 -59 -37 -8 -31 17 -68 66 -101 58 -40 128 -20 117 34 -4 20 0 23 24
23 29 0 49 23 49 55 0 15 -117 135 -132 135 -4 0 -10 -5 -13 -10z m23 -143
c45 -41 15 -99 -38 -72 -61 32 -75 76 -28 94 26 10 33 7 66 -22z"/>
<path d="M3720 3145 c-41 -31 -76 -59 -78 -64 -6 -16 48 -61 74 -61 36 0 91
36 109 70 20 39 19 50 -8 83 l-22 28 -75 -56z m80 -24 c0 -19 -21 -41 -59 -61
-19 -10 -26 -9 -38 3 -13 13 -9 19 32 51 49 37 65 38 65 7z"/>
<path d="M3800 3044 c-41 -25 -79 -49 -83 -54 -13 -12 32 -80 49 -73 17 6 18
25 2 42 -11 10 -9 15 6 27 22 15 36 18 36 7 0 -5 4 -14 9 -22 8 -12 12 -12 25
-2 12 10 13 16 3 32 -9 14 -9 21 0 30 9 9 17 7 32 -12 15 -18 22 -21 32 -12 9
9 7 20 -11 47 -12 20 -22 36 -23 36 -1 0 -36 -21 -77 -46z"/>
<path d="M1851 2991 c-29 -29 -26 -58 10 -92 42 -39 105 -56 139 -37 67 37 9
123 -98 144 -22 5 -35 1 -51 -15z m114 -47 c34 -22 33 -54 -1 -54 -31 0 -94
36 -94 54 0 32 47 32 95 0z"/>
<path d="M3868 2886 c-42 -17 -79 -34 -81 -36 -12 -12 30 -75 52 -80 21 -5 22
-7 7 -19 -9 -7 -16 -24 -16 -37 0 -36 26 -54 79 -54 63 0 115 33 119 76 4 41
-20 59 -74 57 -24 -1 -44 3 -44 8 0 5 9 9 21 9 52 0 75 42 49 91 -14 24 -20
24 -112 -15z m82 -20 c0 -21 -20 -30 -33 -17 -9 9 -8 14 3 21 21 14 30 12 30
-4z m-70 -35 c0 -23 -23 -34 -39 -18 -16 16 -14 25 7 30 30 8 32 7 32 -12z
m114 -86 c8 -21 -37 -48 -82 -49 -31 -1 -37 2 -37 19 0 37 106 64 119 30z"/>
<path d="M1800 2885 c-13 -35 -50 -147 -50 -153 0 -2 12 -2 26 1 35 6 134 -22
134 -38 0 -21 -48 -27 -73 -10 -12 8 -36 15 -54 15 -27 0 -35 -5 -43 -26 -6
-14 -10 -34 -10 -44 0 -20 1 -21 101 -40 54 -10 55 -11 51 -40 -3 -24 -9 -30
-28 -30 -20 0 -24 5 -24 30 0 37 -27 41 -36 5 -9 -36 -34 -32 -34 5 0 23 -4
30 -20 30 -17 0 -20 -7 -20 -44 0 -51 9 -56 107 -56 34 0 65 -4 68 -10 4 -6
-27 -10 -85 -10 -89 0 -91 -1 -88 -22 2 -17 13 -25 48 -33 l45 -11 -45 -15
c-34 -12 -46 -21 -48 -39 -4 -23 -4 -23 82 -16 l86 7 0 -35 c0 -31 -3 -36 -24
-36 -18 0 -25 6 -28 23 -4 32 -32 28 -36 -5 -4 -35 -28 -36 -36 -3 -10 38 -36
32 -36 -7 0 -57 9 -62 86 -49 134 22 122 13 111 82 l-10 61 -58 -4 c-60 -3
-71 5 -19 15 41 9 38 31 -7 44 -38 10 -38 10 23 12 l60 1 2 67 c1 37 5 76 8
85 4 14 0 18 -18 18 -27 0 -54 15 -42 23 5 2 23 8 40 11 28 6 33 13 43 53 10
37 9 48 -1 54 -7 4 -15 3 -19 -2 -4 -7 -27 -5 -68 6 -55 16 -61 20 -55 39 11
35 16 36 92 6 61 -24 74 -26 79 -14 7 19 11 16 -73 48 -58 22 -71 30 -67 45 8
30 -26 35 -37 6z m18 -238 c2 -11 -3 -17 -17 -17 -23 0 -35 15 -26 31 10 15
39 6 43 -14z"/>
<path d="M3918 2647 c-50 -7 -68 -13 -68 -24 0 -13 11 -15 63 -9 60 6 61 6 30
-8 -18 -8 -33 -22 -33 -31 0 -10 10 -15 33 -16 27 0 29 -2 12 -9 -11 -5 -35
-9 -52 -9 -26 -1 -33 -5 -33 -22 0 -15 5 -19 18 -15 9 3 49 8 88 12 40 3 77
10 83 13 24 15 -1 39 -47 46 l-47 7 43 21 c26 13 42 28 42 39 0 21 -22 22
-132 5z"/>
<path d="M3888 2493 c-13 -3 -18 -15 -18 -43 0 -27 6 -42 18 -49 15 -9 16 -10
0 -11 -19 0 -26 -17 -30 -80 -2 -41 -1 -45 22 -48 44 -6 44 -20 1 -32 -31 -8
-41 -16 -41 -31 0 -15 5 -19 16 -15 43 16 64 17 87 1 15 -9 40 -15 59 -13 29
3 34 8 42 41 12 47 8 50 -83 66 -67 12 -67 12 -63 42 3 22 9 29 27 29 18 0 24
-6 27 -27 4 -34 32 -38 36 -5 5 33 38 29 37 -5 0 -18 6 -29 16 -31 13 -2 18 7
21 40 3 24 4 45 2 46 -1 2 -30 6 -63 9 -52 5 -58 8 -44 18 10 7 32 10 53 8 44
-6 63 12 58 59 l-3 33 -80 2 c-44 0 -88 -1 -97 -4z m72 -41 c0 -10 -22 -32
-32 -32 -4 0 -12 9 -18 20 -10 18 -8 20 20 20 16 0 30 -4 30 -8z m68 -4 c-3
-7 -11 -13 -18 -13 -7 0 -15 6 -17 13 -3 7 4 12 17 12 13 0 20 -5 18 -12z
m-20 -225 c-2 -10 -12 -18 -23 -18 -11 0 -21 8 -23 18 -3 13 3 17 23 17 20 0
26 -4 23 -17z"/>
<path d="M1835 2216 c-57 -16 -81 -28 -83 -40 -3 -13 1 -17 15 -12 10 3 32 8
48 12 l30 6 -30 -26 c-16 -14 -33 -25 -37 -26 -5 0 -8 -11 -8 -25 0 -30 -2
-30 80 -5 36 11 70 20 76 20 18 0 28 -51 12 -61 -21 -13 -38 -10 -38 6 0 18
-24 30 -40 20 -7 -4 -7 -13 1 -27 9 -16 8 -23 -2 -29 -13 -8 -33 8 -41 33 -2
5 -11 6 -20 3 -16 -6 -16 -10 -2 -43 8 -20 17 -38 19 -40 3 -3 30 5 61 17 31
12 59 19 62 16 3 -3 0 -5 -6 -5 -7 0 -12 -6 -12 -13 0 -7 -14 -17 -32 -22 -46
-14 -56 -36 -36 -78 l16 -35 90 46 90 46 -16 33 c-9 20 -26 36 -40 40 -21 5
-22 7 -9 15 15 8 14 14 -4 61 -11 29 -22 53 -24 55 -2 2 -27 -4 -56 -12 -29
-9 -54 -14 -56 -12 -2 2 19 18 46 37 28 19 51 42 51 52 0 21 -5 21 -105 -7z
m161 -237 c7 -12 -12 -29 -33 -29 -7 0 -13 9 -13 20 0 22 34 28 46 9z m-79
-46 c4 -11 -26 -27 -35 -19 -2 3 -2 12 2 21 6 18 27 16 33 -2z"/>
<path d="M3843 2170 c-27 -11 -39 -50 -24 -79 9 -17 9 -20 -3 -15 -17 7 -46
-32 -46 -62 0 -25 26 -50 60 -59 18 -4 34 0 54 16 17 14 31 18 37 12 13 -13 1
-41 -19 -45 -14 -3 -12 -6 7 -17 22 -12 26 -11 42 10 24 31 24 48 -3 76 -21
22 -21 23 -2 23 33 0 64 29 64 59 0 33 -25 58 -77 77 -44 15 -60 16 -90 4z
m105 -50 c40 -24 37 -44 -6 -48 -53 -5 -111 36 -85 61 13 13 59 7 91 -13z
m-48 -88 c-13 -2 -35 -12 -48 -23 -14 -10 -28 -16 -33 -13 -16 9 -10 32 12 47
16 12 27 13 57 3 33 -10 34 -11 12 -14z"/>
<path d="M2139 1651 c-38 -38 -43 -99 -11 -135 20 -21 65 -46 86 -46 12 0 56
57 56 73 0 3 -14 15 -31 28 -22 15 -34 18 -41 11 -8 -8 -8 -15 2 -26 16 -20 6
-48 -15 -39 -46 17 -31 106 20 119 30 7 71 -16 80 -47 l7 -21 16 23 c15 21 14
24 -21 56 -50 45 -105 46 -148 4z"/>
<path d="M3496 1654 c-19 -14 -19 -15 -2 -91 28 -117 32 -126 54 -112 12 7 17
20 15 34 -7 32 37 59 63 40 16 -11 23 -11 39 1 10 8 17 15 14 17 -56 45 -146
115 -154 119 -6 4 -19 0 -29 -8z m66 -102 c-14 -10 -18 -10 -24 5 -14 37 -9
45 16 26 23 -16 24 -19 8 -31z"/>
<path d="M2300 1538 c-29 -66 -31 -75 -18 -98 7 -14 30 -33 50 -43 53 -26 79
-10 117 70 36 74 37 79 15 87 -22 9 -26 5 -58 -63 -32 -66 -45 -76 -72 -56
-18 13 -17 16 14 86 24 55 29 75 20 81 -26 16 -36 6 -68 -64z"/>
<path d="M3324 1556 c-6 -15 71 -176 84 -176 4 1 30 13 59 28 40 21 50 30 43
41 -7 12 -13 13 -35 3 -42 -19 -49 -15 -83 53 -31 63 -56 82 -68 51z"/>
<path d="M3218 1523 c-16 -4 -18 -18 -18 -109 0 -57 3 -104 8 -104 15 0 30 16
33 34 6 28 59 44 74 22 14 -18 24 -20 44 -7 11 7 2 26 -44 90 -32 45 -63 80
-69 80 -6 -1 -19 -3 -28 -6z m62 -105 c0 -4 -9 -8 -20 -8 -15 0 -20 7 -20 27
0 25 0 26 20 8 11 -10 20 -22 20 -27z"/>
<path d="M2502 1468 c-56 -77 -72 -102 -72 -109 0 -15 35 -15 52 -1 24 20 66
8 70 -19 2 -12 13 -26 26 -30 22 -8 22 -8 22 89 0 101 -7 122 -42 122 -9 0
-34 -23 -56 -52z m48 -43 c0 -16 -6 -25 -15 -25 -18 0 -18 5 -5 31 14 26 20
24 20 -6z"/>
<path d="M2635 1482 c-7 -20 -8 -19 26 -26 26 -5 30 -10 26 -28 -3 -13 -9 -49
-12 -80 -7 -57 -7 -58 18 -58 23 0 25 5 31 58 11 86 14 92 47 92 l29 0 0 -79
c0 -90 1 -91 81 -91 42 0 49 3 49 20 0 17 -7 20 -40 20 -36 0 -40 3 -40 25 0
23 4 25 40 25 33 0 40 3 40 20 0 17 -7 20 -41 20 -33 0 -40 3 -37 18 2 13 14
17 43 18 29 0 41 5 43 17 3 15 -7 17 -70 18 -40 0 -108 6 -150 13 -65 10 -78
10 -83 -2z"/>
<path d="M3110 1491 c-19 -5 -28 -18 -38 -55 l-14 -49 -29 45 c-25 38 -34 44
-54 40 -29 -5 -30 -16 -14 -127 9 -60 15 -75 26 -71 8 3 19 6 24 6 4 0 6 14 4
30 -3 17 -7 45 -10 63 l-5 32 25 -37 c34 -49 51 -48 67 5 l12 42 10 -57 c8
-51 12 -58 33 -58 12 0 23 4 23 8 0 29 -23 178 -29 183 -3 3 -17 3 -31 0z"/>
</g>
</svg>
