<?xml version="1.0" standalone="no"?>
<!DOCTYPE svg PUBLIC "-//W3C//DTD SVG 20010904//EN"
 "http://www.w3.org/TR/2001/REC-SVG-20010904/DTD/svg10.dtd">
<svg version="1.0" xmlns="http://www.w3.org/2000/svg"
 width="400.000000pt" height="400.000000pt" viewBox="0 0 400.000000 400.000000"
 preserveAspectRatio="xMidYMid meet">

<g transform="translate(0.000000,400.000000) scale(0.100000,-0.100000)"
fill="#000000" stroke="none">
<path d="M1815 3810 c-260 -28 -609 -146 -762 -257 -17 -13 -35 -23 -38 -23
-9 0 -135 -89 -167 -118 -15 -14 -25 -29 -22 -33 3 -5 -1 -7 -8 -4 -22 9 -282
-261 -297 -308 -2 -7 -8 -14 -12 -17 -20 -14 -107 -157 -155 -257 -64 -131
-86 -191 -77 -206 3 -5 2 -7 -4 -4 -20 12 -77 -214 -99 -392 -48 -389 41 -803
244 -1141 95 -158 151 -230 287 -366 129 -129 289 -254 316 -247 5 2 9 -1 9
-6 0 -11 47 -42 68 -45 9 -2 18 -8 20 -14 2 -7 8 -12 14 -12 5 0 47 -18 91
-40 120 -58 272 -109 397 -134 163 -32 221 -37 380 -37 216 0 453 41 610 105
19 8 67 27 105 41 39 15 75 31 80 35 6 4 48 28 95 52 131 68 390 263 382 289
-1 5 2 9 7 9 13 0 81 65 81 78 0 7 4 12 9 12 12 0 117 130 113 141 -1 5 2 9 7
9 18 0 139 211 187 325 120 284 161 502 151 805 -10 312 -93 598 -254 871 -20
35 -40 66 -43 69 -3 3 -25 34 -50 70 -51 76 -89 119 -186 215 -87 86 -132 127
-136 123 -2 -2 -19 12 -38 31 -41 39 -169 125 -255 170 -55 30 -231 105 -300
129 -54 19 -239 62 -310 72 -101 15 -346 20 -440 10z m433 -70 c196 -28 335
-70 504 -149 48 -23 90 -41 92 -41 3 0 22 -11 43 -25 21 -14 45 -30 53 -35
215 -139 399 -320 541 -530 35 -52 64 -97 65 -100 0 -3 24 -53 51 -111 66
-138 108 -257 139 -399 22 -98 27 -148 31 -335 5 -208 3 -227 -21 -350 -32
-161 -39 -184 -88 -315 -95 -247 -235 -458 -434 -651 -91 -87 -232 -199 -278
-220 -14 -7 -26 -16 -26 -21 0 -4 -7 -8 -15 -8 -8 0 -15 -4 -15 -10 0 -5 -3
-9 -7 -8 -5 2 -49 -19 -100 -45 -148 -76 -380 -146 -573 -171 -76 -10 -340 -8
-435 4 -191 23 -395 85 -566 171 -114 57 -219 120 -268 160 -19 15 -39 25 -45
22 -6 -3 -8 -3 -4 1 4 5 -19 30 -51 56 -108 90 -269 279 -357 420 -204 325
-299 751 -254 1140 40 344 200 702 432 964 23 27 42 53 41 58 -2 4 0 7 5 6 10
-3 82 69 76 76 -2 3 -1 4 2 1 4 -2 38 23 77 55 38 33 102 80 141 106 39 25 82
54 96 63 14 9 64 36 112 59 321 156 689 213 1036 162z"/>
<path d="M1843 3640 c-69 -28 -80 -188 -17 -255 32 -35 88 -32 117 6 44 61 12
226 -49 249 -14 6 -26 10 -27 9 -1 0 -12 -4 -24 -9z m62 -70 c23 -44 20 -132
-5 -155 -20 -18 -21 -18 -42 3 -26 25 -37 126 -19 161 17 30 48 26 66 -9z"/>
<path d="M1987 3643 c-4 -3 -7 -66 -7 -140 l0 -133 60 0 c48 0 60 3 60 16 0
12 7 10 31 -10 38 -32 60 -33 94 -3 26 22 28 30 49 205 6 47 5 52 -13 52 -21
0 -26 -18 -37 -132 -8 -80 -24 -109 -51 -92 -15 10 -18 24 -16 100 2 49 5 99
8 110 3 16 -1 23 -14 27 -26 6 -28 -1 -36 -121 l-8 -102 -43 0 -44 0 0 115 c0
89 -3 115 -13 115 -8 0 -17 -3 -20 -7z"/>
<path d="M1733 3622 c-8 -5 -13 -42 -15 -102 l-3 -95 -42 88 c-37 77 -57 99
-75 81 -3 -3 20 -62 52 -132 47 -102 62 -126 77 -124 10 2 19 5 21 6 8 8 14
286 6 286 -5 0 -14 -4 -21 -8z"/>
<path d="M2293 3488 c-30 -127 -30 -147 -2 -148 4 0 15 35 24 78 9 42 21 84
25 92 8 14 9 9 28 -130 6 -45 11 -56 27 -58 18 -3 24 10 49 120 32 140 32 142
13 146 -10 2 -20 -17 -32 -67 -9 -39 -21 -69 -25 -66 -4 3 -11 38 -15 79 -6
65 -9 75 -28 80 -12 3 -24 6 -27 6 -3 0 -20 -60 -37 -132z"/>
<path d="M2496 3563 c-9 -23 -7 -33 7 -33 37 -1 37 -16 -2 -123 -36 -101 -38
-108 -21 -117 16 -9 22 0 49 75 17 47 33 96 37 110 5 21 11 24 38 22 25 -2 31
2 31 17 0 27 -130 73 -139 49z"/>
<path d="M1366 3514 c-65 -65 14 -257 105 -257 89 0 94 140 8 238 -24 27 -39
35 -64 35 -19 0 -41 -7 -49 -16z m82 -47 c45 -48 66 -133 37 -157 -23 -19 -52
-2 -74 43 -29 59 -36 104 -21 122 17 21 33 19 58 -8z"/>
<path d="M2695 3486 c-6 -8 -43 -58 -84 -111 -56 -72 -71 -99 -63 -107 9 -9
18 -6 37 12 22 20 28 22 51 11 22 -10 25 -16 21 -41 -5 -25 -2 -31 28 -49 l35
-20 26 44 c14 25 30 42 36 39 6 -4 8 -32 6 -65 l-4 -59 52 -36 c55 -38 80 -38
70 0 -8 31 91 167 115 160 33 -9 29 25 -6 52 -37 28 -60 24 -51 -9 4 -15 -10
-41 -46 -89 -59 -80 -81 -86 -86 -21 -3 38 0 43 26 57 37 19 62 57 62 95 0 24
-9 36 -45 61 l-44 31 -24 -38 c-13 -21 -41 -67 -62 -102 -22 -35 -41 -59 -42
-54 -2 6 7 60 20 122 24 107 24 112 6 121 -23 13 -22 13 -34 -4z m-14 -139
c-7 -18 -15 -25 -26 -21 -20 8 -19 20 8 57 20 29 22 30 25 11 2 -11 -2 -32 -7
-47z m199 0 c0 -25 -32 -58 -53 -55 -28 4 -30 18 -7 56 17 28 23 31 40 22 11
-6 20 -16 20 -23z"/>
<path d="M1214 3437 c-21 -11 -41 -21 -43 -23 -2 -2 22 -51 54 -109 31 -59 54
-109 52 -112 -3 -2 -23 5 -45 16 -34 17 -40 26 -46 61 -7 48 -44 90 -78 90
-31 0 -101 -48 -92 -63 4 -7 36 -53 71 -103 62 -91 73 -112 52 -98 -6 3 -24
-4 -41 -16 l-30 -22 -26 26 -26 25 23 25 c24 26 23 56 -2 56 -8 0 -22 -9 -33
-21 l-19 -21 -18 23 c-17 22 -17 23 10 51 24 25 25 30 13 43 -13 12 -21 9 -59
-24 l-43 -37 86 -102 c48 -56 90 -102 93 -102 3 0 34 23 69 51 l63 52 -30 43
c-37 54 -24 63 40 28 l49 -28 36 19 c20 11 36 21 36 23 0 1 -9 20 -20 41 l-19
39 24 16 c35 23 35 92 0 134 -33 39 -54 43 -101 19z m81 -83 c0 -44 -31 -44
-52 1 -15 31 -15 37 -3 45 23 14 55 -13 55 -46z m-153 -69 c8 -19 8 -28 -2
-40 -18 -21 -26 -19 -51 16 -18 26 -19 33 -8 40 25 16 49 9 61 -16z"/>
<path d="M2136 3273 c-4 -4 -68 -9 -142 -10 -313 -6 -581 -112 -829 -329 -67
-59 -98 -92 -185 -204 -14 -18 -29 -42 -35 -54 -5 -11 -16 -27 -23 -35 -32
-33 -106 -203 -139 -319 -32 -117 -36 -141 -40 -297 -6 -183 9 -296 58 -445
71 -219 228 -446 415 -599 40 -34 180 -124 231 -150 176 -88 432 -139 638
-126 275 17 530 114 734 279 57 46 203 199 227 239 15 23 35 51 45 62 30 33
132 241 144 294 2 9 11 41 20 71 60 215 58 481 -7 695 -33 107 -100 255 -151
331 -61 92 -176 226 -188 218 -5 -3 -8 -1 -7 4 5 14 -95 102 -110 97 -7 -3
-11 -1 -8 4 7 11 -109 89 -209 139 -96 48 -211 85 -331 107 -49 10 -92 21 -95
26 -3 5 -9 6 -13 2z m-75 -69 l37 -6 -35 -77 c-20 -42 -48 -111 -63 -154 -15
-43 -30 -75 -33 -70 -2 4 -14 38 -26 76 l-23 67 -54 0 c-30 0 -54 -2 -54 -5 0
-18 134 -394 148 -415 9 -14 24 -47 34 -75 10 -27 34 -73 53 -102 19 -29 30
-53 25 -53 -21 0 -112 95 -135 140 -24 48 -59 159 -71 224 -13 76 -28 7 -32
-159 -4 -154 3 -220 33 -297 5 -13 2 -18 -8 -18 -24 0 -27 11 -38 131 -16 184
-42 261 -115 339 -48 51 -121 102 -164 115 -20 6 -12 -6 39 -60 41 -44 77 -95
100 -144 32 -68 36 -85 36 -156 0 -65 -5 -94 -29 -153 -26 -64 -32 -72 -56
-72 l-26 0 24 73 c29 87 26 166 -9 223 -21 35 -125 111 -136 100 -3 -3 6 -19
21 -36 32 -39 40 -69 33 -128 -7 -57 -45 -162 -58 -162 -19 0 -41 73 -36 117
4 37 2 42 -10 31 -32 -26 -57 -93 -57 -153 -1 -51 5 -74 37 -139 21 -42 52
-92 68 -111 25 -28 30 -41 27 -77 l-3 -43 -33 55 c-26 44 -31 49 -26 25 12
-59 37 -150 47 -169 5 -10 13 -32 17 -47 8 -26 7 -28 -11 -19 -13 7 -19 7 -19
0 0 -5 -4 -10 -8 -10 -4 0 -9 18 -10 40 -4 54 -35 172 -66 249 -25 63 -109
205 -126 216 -5 3 7 -30 26 -73 42 -99 67 -245 62 -375 -3 -87 -1 -94 14 -86
38 21 29 7 -10 -16 -24 -14 -49 -22 -55 -18 -7 3 -9 2 -4 -2 8 -10 -32 -57
-44 -50 -4 3 -5 -5 -2 -16 6 -22 13 -23 128 -4 17 3 -1 -4 -40 -15 -51 -15
-76 -17 -92 -10 -26 11 -31 -1 -8 -20 9 -7 27 -10 45 -6 17 3 30 3 30 1 0 -3
-9 -37 -19 -75 -64 -230 -16 -428 147 -601 41 -43 71 -79 68 -79 -29 0 -201
106 -265 164 -352 314 -502 706 -436 1136 68 448 390 831 815 970 129 42 169
51 280 59 52 5 100 9 105 9 6 1 26 -1 46 -4z m266 -40 c167 -42 285 -102 438
-220 142 -111 251 -242 335 -406 98 -190 135 -345 134 -568 -1 -208 -35 -349
-127 -535 -93 -190 -273 -387 -447 -493 -51 -30 -178 -92 -190 -92 -5 0 9 17
32 38 84 76 137 184 163 334 17 94 60 213 94 257 l19 24 57 -23 c31 -13 77
-24 102 -24 38 -1 49 4 74 32 35 39 37 78 8 139 -20 41 -112 133 -154 155 -11
5 -4 -3 15 -18 98 -77 159 -168 146 -219 -22 -86 -94 -86 -276 0 -69 32 -170
73 -225 91 -55 18 -95 33 -88 33 29 2 189 -56 307 -111 70 -34 148 -63 172
-66 38 -4 47 -1 74 26 16 17 30 38 30 47 0 62 -118 183 -238 244 -23 12 -40
26 -37 31 4 6 -1 7 -11 3 -13 -5 -15 -3 -9 7 5 9 4 11 -4 6 -6 -4 -37 2 -68
14 -71 26 -180 50 -241 51 -35 1 -41 3 -21 8 l26 6 2 240 c1 132 6 259 12 282
12 57 53 165 75 199 18 27 18 27 -3 16 -39 -22 -112 -116 -137 -178 -14 -34
-32 -110 -40 -170 -8 -60 -24 -134 -35 -164 -17 -50 -19 -52 -25 -30 -4 16 2
57 16 105 20 69 23 103 23 240 0 181 -13 240 -86 393 -40 83 -40 84 -25 128
l15 44 -54 0 c-46 0 -55 -3 -60 -21 -14 -44 -13 -10 1 60 26 124 26 124 87
116 28 -4 93 -18 144 -31z m-155 -386 c-5 -19 -19 -23 -39 -10 -10 6 -8 23 9
73 l23 64 6 -55 c3 -30 3 -63 1 -72z m-598 -497 c15 -17 15 -19 1 -25 -9 -3
-14 -2 -10 3 3 5 -2 17 -11 25 -8 9 -11 16 -6 16 5 0 17 -8 26 -19z m36 -52
c7 -11 9 -23 6 -27 -3 -3 -6 0 -6 6 0 6 -7 18 -16 26 -8 9 -11 16 -5 16 6 0
15 -9 21 -21z m-83 -21 c-3 -8 -6 -5 -6 6 -1 11 2 17 5 13 3 -3 4 -12 1 -19z
m303 -2 c0 -2 -8 -10 -17 -17 -16 -13 -17 -12 -4 4 13 16 21 21 21 13z m-181
-86 c0 -10 -3 -8 -9 5 -12 27 -12 43 0 25 5 -8 9 -22 9 -30z m18 -102 c-3 -7
-5 -2 -5 12 0 14 2 19 5 13 2 -7 2 -19 0 -25z m10 -65 c-3 -10 -5 -2 -5 17 0
19 2 27 5 18 2 -10 2 -26 0 -35z m3 -126 c0 -7 -7 -22 -15 -33 -13 -17 -13
-16 -3 14 13 34 18 40 18 19z m-77 -64 c-7 -2 -21 -2 -30 0 -10 3 -4 5 12 5
17 0 24 -2 18 -5z m395 -40 c-49 -2 -127 -2 -175 0 -49 1 -9 3 87 3 96 0 136
-2 88 -3z m-335 -10 c-13 -2 -33 -2 -45 0 -13 2 -3 4 22 4 25 0 35 -2 23 -4z
m515 0 c-10 -2 -28 -2 -40 0 -13 2 -5 4 17 4 22 1 32 -1 23 -4z m-610 -10
c-10 -2 -26 -2 -35 0 -10 3 -2 5 17 5 19 0 27 -2 18 -5z m685 0 c-7 -2 -21 -2
-30 0 -10 3 -4 5 12 5 17 0 24 -2 18 -5z m-750 -10 c-7 -2 -19 -2 -25 0 -7 3
-2 5 12 5 14 0 19 -2 13 -5z m820 0 c-7 -2 -19 -2 -25 0 -7 3 -2 5 12 5 14 0
19 -2 13 -5z m-870 -10 c-7 -2 -19 -2 -25 0 -7 3 -2 5 12 5 14 0 19 -2 13 -5z
m947 -3 c20 -6 21 -8 5 -8 -11 0 -31 4 -45 8 -20 6 -21 8 -5 8 11 0 31 -4 45
-8z m-750 -125 c92 -191 110 -290 62 -354 -28 -39 -66 -54 -115 -46 -54 9
-121 76 -137 136 -15 53 -5 142 25 228 13 36 26 75 30 86 6 17 3 16 -15 -5
-12 -14 -31 -36 -41 -49 -11 -13 -21 -22 -23 -20 -6 6 21 120 31 130 9 9 45
16 90 18 32 1 34 -1 93 -124z m673 90 c-2 -11 -7 -50 -13 -87 -12 -71 -3 -130
27 -178 l16 -25 -21 19 c-37 33 -62 97 -62 162 0 80 16 136 38 132 10 -2 16
-12 15 -23z m239 -44 c96 -33 101 -37 83 -71 -30 -58 -114 -61 -135 -4 -9 24
-14 94 -7 94 2 0 29 -9 59 -19z m191 -84 c16 -11 15 -15 -19 -47 -35 -33 -36
-34 -30 -10 4 14 10 35 13 48 6 25 12 27 36 9z"/>
<path d="M997 2299 c-60 -32 -91 -88 -96 -177 -4 -97 10 -141 59 -185 64 -59
162 -72 254 -33 35 14 36 17 36 65 0 52 -8 62 -30 37 -6 -8 -31 -22 -55 -32
-36 -13 -49 -14 -80 -4 -52 17 -75 59 -75 139 0 58 2 65 34 97 43 43 92 46
151 9 22 -13 44 -25 48 -25 4 0 7 23 5 52 -3 49 -5 52 -38 64 -56 20 -168 17
-213 -7z"/>
<path d="M2730 2136 l0 -215 118 3 c97 2 125 6 153 22 44 25 72 78 65 123 -5
36 -40 81 -63 81 -17 0 -17 17 1 27 57 34 40 139 -25 162 -18 6 -81 11 -140
11 l-109 0 0 -214z m190 119 c22 -26 4 -63 -34 -71 -46 -8 -56 0 -56 47 0 39
0 39 39 39 22 0 44 -6 51 -15z m12 -157 c24 -19 30 -51 14 -73 -10 -14 -27
-19 -62 -19 l-49 -1 -3 39 c-2 21 -1 44 2 52 7 18 76 19 98 2z"/>
<path d="M2564 2025 c-44 -47 -80 -90 -82 -95 -2 -6 7 -10 20 -10 16 0 30 10
43 33 10 17 38 58 63 90 24 32 42 60 39 63 -2 3 -40 -34 -83 -81z"/>
<path d="M3030 3211 c-57 -38 -100 -103 -100 -151 0 -47 25 -70 74 -70 31 0
46 8 90 50 79 74 95 158 37 189 -31 17 -55 13 -101 -18z m88 -49 c5 -33 -38
-93 -82 -117 -33 -18 -37 -18 -52 -3 -24 23 -12 57 36 107 32 32 47 41 68 39
20 -2 28 -9 30 -26z"/>
<path d="M837 3156 c-4 -9 24 -42 74 -89 43 -41 79 -79 79 -85 0 -6 -7 -18
-16 -26 -21 -22 -43 -9 -126 72 -60 58 -69 64 -84 51 -15 -13 -9 -21 67 -91
98 -90 135 -105 175 -67 44 41 34 71 -58 165 -82 84 -101 96 -111 70z"/>
<path d="M3193 2962 c-56 -42 -102 -81 -102 -87 0 -15 41 -61 67 -74 67 -35
202 59 202 140 0 27 -37 90 -55 95 -5 1 -56 -32 -112 -74z m119 -7 c9 -19 7
-29 -6 -50 -22 -34 -74 -65 -107 -65 -25 0 -58 25 -47 36 18 18 134 104 141
104 4 0 12 -11 19 -25z"/>
<path d="M706 3009 c-40 -32 -37 -87 10 -138 39 -44 106 -81 146 -81 57 0 96
70 59 104 -21 19 -21 19 -21 -5 0 -34 -18 -49 -57 -49 -25 0 -43 10 -78 43
-25 24 -45 51 -45 60 0 20 27 47 47 47 14 0 14 3 -2 20 -23 25 -26 25 -59 -1z"/>
<path d="M3300 2814 c-58 -35 -106 -68 -108 -73 -3 -10 50 -101 59 -101 4 0
12 6 18 14 10 11 9 21 -3 45 -21 39 -21 38 15 57 33 17 34 17 60 -29 8 -13 14
-15 29 -7 19 10 19 12 3 46 -15 31 -15 36 -3 44 25 16 39 11 55 -20 17 -33 27
-37 45 -16 9 12 6 24 -15 60 -15 25 -32 46 -38 45 -7 0 -59 -29 -117 -65z"/>
<path d="M546 2749 c-19 -15 -26 -30 -26 -53 0 -44 29 -79 92 -110 96 -48 178
-27 178 46 0 43 -63 102 -132 123 -67 20 -80 19 -112 -6z m135 -50 c45 -23 61
-42 57 -71 -6 -44 -91 -31 -148 22 -34 32 -36 42 -14 64 18 18 48 14 105 -15z"/>
<path d="M3421 2600 c-67 -27 -125 -50 -127 -52 -2 -2 8 -27 21 -56 21 -46 28
-52 55 -52 35 0 38 -10 10 -35 -12 -11 -20 -31 -20 -52 0 -52 28 -73 98 -73
130 1 221 89 164 160 -21 26 -83 36 -134 22 -36 -10 -37 -10 -26 14 8 18 19
24 42 24 41 0 76 25 76 54 0 21 -26 97 -33 95 -1 0 -58 -22 -126 -49z m107
-32 c-3 -27 -46 -38 -59 -16 -10 16 15 38 44 38 13 0 18 -6 15 -22z m-98 -48
c0 -24 -5 -31 -27 -36 -19 -5 -30 -2 -40 11 -18 26 -16 34 10 45 43 17 57 12
57 -20z m141 -100 c58 -32 -22 -100 -117 -100 -64 0 -62 63 3 88 57 22 88 25
114 12z"/>
<path d="M461 2570 c-12 -33 -24 -68 -26 -78 -3 -9 -10 -36 -17 -60 -10 -36
-10 -45 2 -52 9 -5 18 -4 24 6 10 12 18 12 61 -1 28 -9 67 -20 88 -26 52 -14
51 -44 -2 -60 -34 -10 -42 -9 -68 10 -43 32 -96 38 -120 14 -17 -17 -40 -99
-30 -109 2 -2 53 -13 114 -25 l111 -21 -5 -41 c-7 -52 -11 -56 -50 -50 -28 5
-32 9 -35 41 -2 25 -8 38 -20 40 -14 3 -19 -6 -24 -37 -7 -42 -11 -46 -38 -35
-11 4 -16 19 -16 45 0 35 -3 39 -24 39 -22 0 -24 -4 -28 -59 l-3 -59 95 -6
c52 -4 114 -9 137 -12 41 -6 42 -6 47 27 3 19 7 58 9 87 l4 52 -37 6 c-78 13
-78 35 0 54 l50 12 18 61 c18 61 18 62 0 71 -14 7 -22 6 -28 -4 -7 -11 -23 -9
-92 10 -45 13 -86 25 -90 27 -8 4 22 83 33 83 4 0 49 -16 99 -35 104 -40 120
-42 120 -17 0 12 -16 23 -52 36 -159 56 -159 55 -152 83 6 23 -6 42 -27 43 -4
0 -16 -27 -28 -60z m37 -292 c7 -7 12 -21 12 -31 0 -17 -5 -19 -42 -13 -51 8
-52 9 -43 35 7 24 53 29 73 9z"/>
<path d="M3515 2261 c-98 -13 -120 -19 -123 -33 -4 -22 25 -23 112 -7 32 6 60
8 64 5 3 -3 -18 -16 -47 -27 -66 -28 -67 -53 -1 -57 25 -2 49 -7 53 -12 9 -8
-9 -11 -115 -26 -38 -5 -48 -10 -48 -25 0 -23 -4 -23 153 -2 108 15 127 20
127 35 0 23 -23 34 -87 43 -29 4 -53 10 -53 15 0 4 27 19 60 34 50 22 60 31
60 52 0 28 11 27 -155 5z"/>
<path d="M3410 1992 c0 -50 11 -72 45 -90 18 -10 17 -11 -12 -12 -31 0 -32 -1
-38 -57 -3 -32 -9 -70 -11 -85 -4 -19 -1 -28 8 -28 26 0 88 -21 88 -30 0 -8
-37 -22 -92 -34 -22 -5 -28 -12 -28 -32 0 -20 4 -25 16 -20 9 4 36 11 59 17
38 10 45 8 80 -15 70 -48 118 -32 134 45 6 29 10 53 9 54 -2 1 -52 12 -113 25
-60 12 -114 26 -119 31 -6 6 -6 9 2 9 7 0 12 14 12 34 0 41 5 45 48 39 29 -5
32 -9 32 -39 0 -23 6 -37 16 -41 19 -7 34 13 34 45 0 18 6 22 29 22 28 0 29
-1 24 -39 -5 -33 -2 -39 16 -44 27 -7 29 -3 32 63 l3 55 -87 9 c-48 5 -87 13
-87 18 0 4 5 8 12 8 6 0 19 7 29 16 13 12 22 13 38 5 28 -16 67 -14 85 5 10
10 16 33 16 65 l0 49 -140 0 -140 0 0 -48z m130 -11 c0 -48 -73 -56 -78 -8 -3
26 -1 27 37 27 33 0 41 -3 41 -19z m105 9 c10 -17 -16 -41 -39 -38 -13 2 -22
12 -24 26 -3 19 1 22 27 22 16 0 33 -5 36 -10z m-32 -319 c15 -15 -5 -41 -32
-41 -32 0 -51 16 -51 43 0 17 5 18 38 12 20 -3 41 -10 45 -14z"/>
<path d="M393 2003 c-37 -4 -43 -7 -43 -28 0 -20 7 -25 48 -34 26 -5 58 -14
72 -19 l25 -10 -26 -10 c-14 -6 -44 -16 -67 -23 -34 -10 -42 -17 -42 -36 0
-24 0 -24 113 -23 61 1 117 1 122 1 6 -1 9 -20 7 -46 -3 -38 -8 -46 -28 -51
-37 -9 -54 2 -54 36 0 27 -3 31 -22 28 -19 -2 -23 -9 -21 -38 2 -36 -9 -50
-39 -50 -13 0 -18 8 -18 28 0 37 -14 56 -35 48 -15 -5 -16 -14 -11 -58 4 -29
9 -55 11 -58 6 -10 270 35 270 46 -1 5 -4 42 -9 82 l-8 72 -92 1 c-94 0 -94 1
-11 34 37 15 39 17 22 30 -11 7 -36 17 -58 20 -63 11 -34 25 52 25 72 0 79 2
79 20 0 19 -6 20 -97 18 -54 -1 -117 -3 -140 -5z"/>
<path d="M575 1660 c-33 -10 -86 -26 -117 -35 -44 -12 -58 -21 -58 -35 0 -18
2 -18 71 1 39 11 73 18 76 16 2 -3 -25 -26 -62 -53 -53 -39 -64 -52 -59 -68 4
-12 8 -23 10 -25 2 -2 53 10 113 27 60 18 113 32 118 32 4 0 9 -12 10 -28 1
-15 3 -35 5 -45 2 -13 -7 -23 -30 -32 -33 -15 -33 -14 -48 20 -15 37 -20 40
-43 26 -12 -8 -12 -14 -1 -41 11 -27 11 -33 -1 -41 -26 -16 -40 -9 -55 26 -13
31 -17 34 -35 24 -11 -6 -18 -16 -16 -22 32 -81 41 -97 51 -94 6 3 61 24 121
48 61 23 114 45 118 49 4 4 -3 33 -17 65 -15 32 -26 64 -26 71 0 19 -21 18
-102 -7 -38 -11 -74 -19 -80 -17 -6 2 26 30 71 62 54 39 81 64 79 74 -4 23
-23 23 -93 2z"/>
<path d="M3374 1576 c-48 -22 -58 -66 -24 -109 26 -33 25 -38 -4 -27 -19 7
-28 4 -44 -13 -42 -47 -34 -105 19 -133 41 -21 74 -17 108 12 17 14 39 24 48
22 29 -5 27 -43 -2 -66 -25 -20 -25 -21 -6 -31 26 -15 27 -14 51 11 35 38 25
100 -21 123 -41 22 -73 18 -107 -10 -47 -40 -80 -30 -68 20 4 14 19 31 35 39
26 14 33 13 82 -5 93 -36 169 -10 169 56 0 18 -9 41 -20 53 -51 54 -160 83
-216 58z m157 -63 c32 -19 41 -36 33 -58 -9 -23 -44 -27 -97 -11 -56 17 -87
41 -87 68 0 39 86 39 151 1z"/>
<path d="M672 1364 c-13 -9 -27 -26 -31 -37 -6 -15 -18 -22 -40 -23 -37 -2
-71 -29 -71 -56 0 -10 9 -37 20 -59 l21 -40 119 62 c66 34 120 67 120 73 0 6
-10 29 -23 51 -19 33 -28 40 -57 43 -21 2 -45 -4 -58 -14z m75 -50 c12 -19 10
-22 -22 -37 -34 -16 -35 -16 -46 5 -10 18 -8 24 11 40 27 22 38 20 57 -8z
m-103 -60 c7 -19 8 -17 -22 -33 -24 -13 -42 -7 -42 13 0 33 53 49 64 20z"/>
<path d="M992 873 c-75 -37 -106 -153 -56 -213 27 -32 91 -70 119 -70 13 0 84
85 85 101 0 13 -82 60 -96 55 -19 -7 -18 -33 3 -45 15 -8 16 -12 3 -35 -17
-32 -21 -32 -54 0 -59 59 -11 164 75 164 37 0 62 -20 94 -75 9 -16 12 -15 24
8 12 23 11 29 -8 55 -24 34 -94 72 -132 72 -13 0 -39 -8 -57 -17z"/>
<path d="M2879 841 l-24 -19 34 -136 c18 -75 36 -136 40 -136 4 0 16 7 28 15
19 13 21 20 13 41 -6 14 -10 27 -10 28 0 2 18 16 41 30 37 25 42 26 58 12 21
-19 40 -20 64 -2 16 13 8 21 -93 100 -60 47 -114 86 -119 86 -5 0 -19 -9 -32
-19z m91 -91 c33 -29 33 -30 15 -45 -29 -21 -42 -18 -48 13 -3 15 -9 35 -12
45 -10 25 5 20 45 -13z"/>
<path d="M1190 694 c-57 -124 -53 -167 20 -204 87 -44 127 -20 188 112 38 83
40 89 22 98 -33 18 -41 11 -80 -74 -47 -99 -61 -113 -98 -100 -40 14 -38 47 7
144 35 77 38 86 23 98 -30 23 -43 12 -82 -74z"/>
<path d="M2646 717 c-16 -12 -13 -21 41 -134 l58 -122 78 36 c52 24 77 41 77
53 0 29 -11 30 -62 4 -27 -14 -52 -23 -57 -20 -4 3 -27 48 -51 101 -24 52 -48
95 -55 95 -6 0 -19 -6 -29 -13z"/>
<path d="M2488 658 l-28 -10 0 -139 c0 -126 2 -139 18 -139 27 0 40 13 44 44
2 23 11 31 43 42 39 13 41 13 61 -11 18 -23 24 -25 48 -15 19 7 25 14 19 23
-27 46 -160 216 -168 216 -5 0 -22 -5 -37 -11z m66 -108 c25 -38 25 -40 7 -50
-34 -18 -41 -12 -41 40 0 28 2 50 4 50 2 0 15 -18 30 -40z"/>
<path d="M1442 543 l-84 -117 29 -8 c22 -6 32 -4 46 13 15 19 23 21 60 13 38
-8 42 -12 45 -41 2 -25 9 -34 27 -39 13 -3 27 -4 32 -1 4 3 7 66 5 140 l-3
135 -31 11 c-17 6 -34 11 -37 11 -3 0 -43 -53 -89 -117z m96 -59 c-7 -7 -48 9
-48 18 0 6 10 27 23 47 l22 36 3 -49 c2 -26 2 -50 0 -52z"/>
<path d="M1662 598 c2 -18 11 -24 38 -28 19 -3 35 -9 35 -15 0 -5 -6 -51 -14
-102 -15 -103 -12 -126 21 -121 24 3 23 1 54 186 5 32 6 33 50 30 24 -2 45 -7
45 -13 1 -5 2 -57 3 -115 l1 -105 90 0 c83 0 90 1 90 20 0 17 -8 20 -57 23
l-58 3 0 39 0 40 55 0 c48 0 55 2 55 20 0 18 -7 20 -55 20 -54 0 -55 0 -55 30
l0 30 60 0 c52 0 60 3 60 19 0 22 -40 31 -145 31 -38 0 -110 7 -160 15 -117
19 -117 19 -113 -7z"/>
<path d="M2318 613 c-10 -3 -22 -27 -34 -69 -9 -36 -21 -67 -25 -70 -4 -2 -25
23 -45 57 -37 59 -39 61 -72 55 -19 -3 -36 -7 -39 -9 -5 -5 33 -257 40 -264 3
-3 15 -2 26 2 23 7 25 29 12 123 -4 28 -5 52 -1 52 3 0 14 -15 24 -32 46 -81
77 -84 96 -10 7 26 16 51 20 55 4 5 13 -28 20 -73 7 -44 16 -82 20 -85 3 -2
16 -1 28 2 27 7 27 15 5 161 -17 119 -18 120 -75 105z"/>
</g>
</svg>
